# xmcd
#
# Track frame offsets:
#	150
#	21410
#	37827
#	57627
#
# Disc length: 975 seconds
#
# Revision: 1
# Processed by: cddbd v1.5.2PL0 Copyright (c) Steve Scherf et al.
# Submitted via: audiograbber 1.83.01
#
DISCID=2f03cd04
DTITLE=Siffre, Labi - So Strong
DYEAR=1998
DGENRE=Soul
TTITLE0=So Strong
TTITLE1=Lovers
TTITLE2=So Strong (Live)
TTITLE3=Listen To The Voices
EXTD=
EXTT0=
EXTT1=
EXTT2=Recorded Live at The Prince's Trust Concert
EXTT3=
PLAYORDER=
